<?xml version="1.0" standalone="no"?>
<!DOCTYPE svg PUBLIC "-//W3C//DTD SVG 20010904//EN"
 "http://www.w3.org/TR/2001/REC-SVG-20010904/DTD/svg10.dtd">
<svg version="1.0" xmlns="http://www.w3.org/2000/svg"
 width="496.000000pt" height="496.000000pt" viewBox="0 0 496.000000 496.000000"
 preserveAspectRatio="xMidYMid meet">
<metadata>
Created by potrace 1.14, written by Peter Selinger 2001-2017
</metadata>
<g transform="translate(0.000000,496.000000) scale(0.100000,-0.100000)"
fill="#000000" stroke="none">
<path d="M3209 4806 c-2 -2 -51 -7 -109 -11 -58 -3 -118 -8 -135 -10 -16 -3
-68 -9 -115 -15 -163 -21 -159 -21 -325 -55 -124 -26 -425 -111 -490 -139 -16
-7 -61 -26 -100 -41 -535 -213 -940 -591 -1079 -1008 -147 -440 27 -823 499
-1095 39 -22 269 -136 310 -153 111 -46 325 -119 480 -163 356 -101 621 -208
740 -299 109 -83 149 -155 149 -267 -2 -214 -177 -392 -481 -489 -177 -56
-343 -76 -628 -75 -232 0 -333 6 -493 29 -147 21 -163 24 -192 30 -14 3 -41 8
-60 11 -128 20 -599 156 -635 184 -5 4 -21 10 -35 13 -23 5 -29 -1 -68 -71
-23 -42 -67 -120 -98 -172 -31 -52 -66 -113 -79 -135 -12 -22 -77 -134 -143
-249 l-121 -210 37 -16 c118 -52 419 -136 592 -165 19 -3 42 -8 50 -10 8 -2
35 -7 60 -10 25 -3 56 -8 70 -10 53 -10 118 -18 315 -40 248 -27 826 -27 1070
0 22 3 65 7 95 10 30 4 66 8 80 10 14 2 45 6 70 9 25 3 56 8 70 10 14 3 42 7
62 10 21 3 57 10 80 15 24 6 59 13 78 16 108 18 394 102 545 160 110 42 316
140 380 179 86 54 233 153 255 172 14 12 50 43 80 69 73 63 183 179 217 229
16 23 38 52 51 66 12 14 22 30 22 37 0 7 5 13 10 13 6 0 10 4 10 9 0 4 18 41
41 82 36 66 125 299 114 299 -3 0 -1 10 4 23 24 64 31 234 14 344 -53 341
-339 619 -843 821 -14 5 -42 17 -62 26 -20 9 -122 44 -225 77 -412 133 -649
211 -678 224 -215 94 -278 129 -347 196 -68 67 -92 126 -84 209 14 161 141
297 361 385 108 43 232 73 375 91 126 16 551 9 710 -11 263 -35 412 -68 630
-141 l134 -46 19 23 c10 13 119 186 240 384 122 198 230 371 239 385 10 13 14
27 10 31 -13 12 -223 76 -352 107 -155 38 -283 61 -415 77 -27 3 -59 8 -70 10
-11 2 -54 6 -95 10 -41 3 -95 8 -120 11 -57 6 -686 15 -691 10z"/>
</g>
</svg>
